# xmcd
#
# Track frame offsets: 
#        150
#        8065
#        25677
#        43313
#        65201
#        68341
#        85116
#        103577
#        123589
#        145825
#        162215
#        176729
#        200307
#        219461
#        235778
#        252952
#
# Disc length: 3565 seconds
#
# Revision: 0
# Processed by: cddbd v1.5.2PL0 Copyright (c) Steve Scherf et al.
# Submitted via: ExactAudioCopyFreeDBPlugin 1.0
#
DISCID=d90deb10
DTITLE=DJ Quik - The Midnight Life
DYEAR=2014
DGENRE=Rap
TTITLE0=Intro
TTITLE1=That N****r's Crazy
TTITLE2=Back That Shit Up feat. Tay F 3Rd and David Blake II
TTITLE3=Trapped On The Tracks feat. Bishop Lamont and David Blake II
TTITLE4=El's Interlude
TTITLE5=Puffin The Dragon
TTITLE6=Pet Semetary
TTITLE7=Life Jacket feat. Suga Free and Dom Kennedy
TTITLE8=That Getter feat. David Blake
TTITLE9=The Conduct feat. Mack 10
TTITLE10=Shine feat. David Blake
TTITLE11=Bacon's Groove feat. Rob "Fonksta" Bacon
TTITLE12=Broken Down feat. Suga Free and Tweed Caddilac
TTITLE13=Why'D You Have To Lie feat. Joi
TTITLE14=F**k All Night
TTITLE15=Quik's Groove 9
EXTD=
EXTT0=
EXTT1=
EXTT2=
EXTT3=
EXTT4=
EXTT5=
EXTT6=
EXTT7=
EXTT8=
EXTT9=
EXTT10=
EXTT11=
EXTT12=
EXTT13=
EXTT14=
EXTT15=
PLAYORDER=
